<svg width="16" height="16" viewBox="0 0 16 16" fill="none" xmlns="http://www.w3.org/2000/svg">
<path d="M7.80991 1.36611C9.83348 1.36611 10.0735 1.37368 10.8731 1.41032C12.927 1.50379 13.8863 2.47832 13.9798 4.51705C14.0164 5.316 14.0234 5.556 14.0234 7.57958C14.0234 9.60379 14.0158 9.84316 13.9798 10.6421C13.8857 12.6789 12.9289 13.6554 10.8731 13.7488C10.0735 13.7855 9.83475 13.7931 7.80991 13.7931C5.78633 13.7931 5.54633 13.7855 4.74738 13.7488C2.68843 13.6547 1.73412 12.6758 1.64064 10.6415C1.60401 9.84253 1.59643 9.60316 1.59643 7.57895C1.59643 5.55537 1.60464 5.316 1.64064 4.51642C1.73475 2.47832 2.69159 1.50316 4.74738 1.40968C5.54696 1.37368 5.78633 1.36611 7.80991 1.36611ZM7.80991 0C5.75159 0 5.4939 0.00884211 4.68548 0.0454737C1.93306 0.171789 0.403378 1.69895 0.277062 4.4539C0.239799 5.26295 0.230957 5.52063 0.230957 7.57895C0.230957 9.63726 0.239799 9.89558 0.276431 10.704C0.402747 13.4564 1.9299 14.9861 4.68485 15.1124C5.4939 15.1491 5.75159 15.1579 7.80991 15.1579C9.86822 15.1579 10.1265 15.1491 10.935 15.1124C13.6849 14.9861 15.2183 13.4589 15.3427 10.704C15.38 9.89558 15.3889 9.63726 15.3889 7.57895C15.3889 5.52063 15.38 5.26295 15.3434 4.45453C15.2196 1.70463 13.6905 0.172421 10.9356 0.0461053C10.1265 0.00884211 9.86822 0 7.80991 0V0ZM7.80991 3.68716C5.66064 3.68716 3.91811 5.42968 3.91811 7.57895C3.91811 9.72821 5.66064 11.4714 7.80991 11.4714C9.95917 11.4714 11.7017 9.72884 11.7017 7.57895C11.7017 5.42968 9.95917 3.68716 7.80991 3.68716ZM7.80991 10.1053C6.41475 10.1053 5.28359 8.97474 5.28359 7.57895C5.28359 6.18379 6.41475 5.05263 7.80991 5.05263C9.20506 5.05263 10.3362 6.18379 10.3362 7.57895C10.3362 8.97474 9.20506 10.1053 7.80991 10.1053ZM11.8558 2.62421C11.3531 2.62421 10.9457 3.03158 10.9457 3.53368C10.9457 4.03579 11.3531 4.44316 11.8558 4.44316C12.3579 4.44316 12.7646 4.03579 12.7646 3.53368C12.7646 3.03158 12.3579 2.62421 11.8558 2.62421Z" fill="white"/>
</svg>
