<svg width="61" height="64" viewBox="0 0 61 64" fill="none" xmlns="http://www.w3.org/2000/svg">
<g clip-path="url(#clip0)">
<path d="M7.518 63.4069L6.42383 59.8069H6.82767L7.89078 63.3246C7.95291 63.5269 8.05646 63.64 8.22559 63.64C8.39472 63.64 8.50172 63.5303 8.5604 63.3246L9.6166 59.8069H10.0204L8.92627 63.4069C8.80546 63.8011 8.54659 64 8.22559 64C7.89768 64 7.64226 63.8046 7.518 63.4069Z" fill="white"/>
<path d="M13.6513 63.9314C13.3579 63.9314 13.2612 63.784 13.2612 63.544V60.1978C13.2612 59.9578 13.3579 59.8104 13.6513 59.8104H15.957V60.1806H13.6513V61.6858H15.85V62.056H13.6513V63.5612H16.0122V63.9314H13.6513Z" fill="white"/>
<path d="M19.416 63.9314V60.2835C19.416 59.9372 19.6162 59.7452 19.9027 59.7452C20.134 59.7452 20.2755 59.8447 20.379 60.0538L22.0703 63.4926C22.1325 63.616 22.167 63.664 22.2533 63.664C22.3258 63.664 22.3637 63.6092 22.3637 63.496V59.8035H22.7365V63.4583C22.7365 63.8046 22.5121 63.9897 22.2671 63.9897C22.0531 63.9897 21.8839 63.8972 21.7769 63.6812L20.0787 60.2115C20.0304 60.1052 19.9924 60.0572 19.92 60.0572C19.8268 60.0572 19.7853 60.1258 19.7853 60.2561V63.928H19.416V63.9314Z" fill="white"/>
<path d="M28.8563 60.1806H27.555V63.9349H27.165V60.1806H25.8706V59.8104H28.8563V60.1806Z" fill="white"/>
<path d="M31.9316 62.1726V59.8069H32.3217V62.1658C32.3217 63.0606 32.7117 63.6057 33.5298 63.6057C34.3478 63.6057 34.7378 63.064 34.7378 62.1658V59.8069H35.1279V62.1726C35.1279 63.2834 34.6101 63.9829 33.5298 63.9829C32.4459 63.9829 31.9316 63.2834 31.9316 62.1726Z" fill="white"/>
<path d="M38.7969 63.9314V59.8069H40.0843C40.8955 59.8069 41.5444 60.1841 41.5444 60.9966C41.5444 61.6069 41.1613 62.0218 40.5434 62.1246C40.9334 62.2857 41.1405 62.68 41.4029 63.2183L41.7515 63.928H41.3304L41.0059 63.2732C40.7194 62.6937 40.4916 62.272 39.8289 62.272H39.1835V63.928H38.7969V63.9314ZM39.1869 60.1806V61.9155H40.0705C40.6884 61.9155 41.144 61.624 41.144 61.0343C41.144 60.4344 40.6608 60.1841 40.0809 60.1841H39.1869V60.1806Z" fill="white"/>
<path d="M45.5272 63.9314C45.2338 63.9314 45.1372 63.784 45.1372 63.544V60.1978C45.1372 59.9578 45.2338 59.8104 45.5272 59.8104H47.8329V60.1806H45.5272V61.6858H47.7259V62.056H45.5272V63.5612H47.8882V63.9314H45.5272Z" fill="white"/>
<path d="M51.0503 63.136L51.3782 62.968C51.5542 63.376 51.9581 63.6023 52.4827 63.6023C53.0453 63.6023 53.4699 63.3109 53.4699 62.8069C53.4699 62.2583 52.9832 62.152 52.4448 62.0423C51.8269 61.9052 51.1262 61.7201 51.1262 60.9006C51.1262 60.2526 51.7199 59.7658 52.4275 59.7658C53.0143 59.7658 53.5389 60.0504 53.7633 60.5921L53.4388 60.7635C53.2559 60.3624 52.8969 60.1395 52.4137 60.1395C51.9305 60.1395 51.5163 60.4549 51.5163 60.8869C51.5163 61.4286 52.0168 61.5418 52.5552 61.6583C53.1731 61.7955 53.8599 61.9806 53.8599 62.8069C53.8599 63.5097 53.2628 63.9794 52.4793 63.9794C51.8373 63.9829 51.2746 63.6812 51.0503 63.136Z" fill="white"/>
<path d="M0 52.3259H3.248C3.49306 53.3168 4.23172 53.9887 6.22677 53.9887C7.63849 53.9887 8.30811 53.6528 8.30811 52.9773C8.30811 52.1442 7.3451 52.0791 5.48811 51.6265C1.99505 50.7934 0.562618 50.0082 0.562618 47.8723C0.562618 45.2632 2.71299 43.7581 5.95754 43.7581C9.38157 43.7581 11.0625 45.4209 11.4871 47.7146H8.23907C7.99401 46.926 7.32094 46.4563 5.84363 46.4563C4.56652 46.4563 3.783 46.8163 3.783 47.4917C3.783 48.078 4.34217 48.1877 6.13357 48.5923C9.64734 49.4014 11.6182 50.0768 11.6182 52.5488C11.6182 55.3156 9.17792 56.663 6.13357 56.663C2.84415 56.6664 0.448714 55.0482 0 52.3259Z" fill="white"/>
<path d="M25.8011 44.0289L25.7804 56.3956H22.5773V54.7327C21.7282 55.9019 20.4511 56.6664 18.7252 56.6664C15.5014 56.6664 13.106 54.0128 13.106 50.214C13.106 46.3912 15.5463 43.7615 18.7045 43.7615C20.4511 43.7615 21.7489 44.5706 22.6014 45.7638V44.0324H25.8011V44.0289ZM22.598 50.2105C22.598 48.1877 21.2311 46.8163 19.4397 46.8163C17.6483 46.8163 16.3263 48.1877 16.3263 50.2105C16.3263 52.2574 17.669 53.6048 19.4397 53.6048C21.2346 53.6082 22.598 52.2574 22.598 50.2105Z" fill="white"/>
<path d="M28.3516 44.0289H31.5547V56.3956H28.3516V44.0289Z" fill="white"/>
<path d="M45.617 48.6368V56.3956H42.4138V49.3328C42.4138 47.7146 41.8098 46.8129 40.1081 46.8129C38.296 46.8129 37.333 47.8689 37.333 49.8951V56.3956H34.1299V44.0289H37.333V45.7158C38.227 44.4575 39.4592 43.7581 41.1609 43.7581C43.936 43.7581 45.617 45.6026 45.617 48.6368Z" fill="white"/>
<path d="M60.2897 50.2105C60.2897 53.9442 57.4697 56.663 53.8628 56.663C50.28 56.663 47.46 53.9202 47.46 50.2105C47.46 46.4769 50.3248 43.7581 53.8628 43.7581C57.4214 43.7581 60.2897 46.4769 60.2897 50.2105ZM50.6838 50.2105C50.6838 52.2574 52.0714 53.6048 53.8628 53.6048C55.6542 53.6048 57.0417 52.2539 57.0417 50.2105C57.0417 48.1877 55.6542 46.8163 53.8628 46.8163C52.0714 46.8163 50.6838 48.1877 50.6838 50.2105Z" fill="white"/>
<path d="M47.453 9.80554L30.143 18.9288L12.833 9.80554L30.143 0.685702L47.453 9.80554Z" stroke="white" stroke-width="4" stroke-miterlimit="10" stroke-linecap="round" stroke-linejoin="round"/>
<path d="M47.453 19.4911L30.143 28.6109L12.833 19.4911L30.143 10.3678L47.453 19.4911Z" stroke="white" stroke-width="4" stroke-miterlimit="10" stroke-linecap="round" stroke-linejoin="round"/>
<path d="M47.453 28.0486L30.143 37.1719L12.833 28.0486L30.143 18.9288L47.453 28.0486Z" stroke="white" stroke-width="4" stroke-miterlimit="10" stroke-linecap="round" stroke-linejoin="round"/>
<path d="M13.6889 9.80554H12.1426V19.4877H13.6889V9.80554Z" fill="white"/>
<path d="M30.9165 0.685702H29.3701V10.6592H30.9165V0.685702Z" fill="white"/>
<path d="M30.9165 28.0486H29.3701V36.6062H30.9165V28.0486Z" fill="white"/>
<path d="M48.1401 19.4911H46.5938V28.0486H48.1401V19.4911Z" fill="white"/>
</g>
<defs>
<clipPath id="clip0">
<rect width="60.2899" height="64" fill="white"/>
</clipPath>
</defs>
</svg>
