<svg width="95" height="101" viewBox="0 0 95 101" fill="none" xmlns="http://www.w3.org/2000/svg">
<g clip-path="url(#clip0)">
<path d="M11.8457 100.063L10.1216 94.3823H10.7579L12.4331 99.9336C12.531 100.253 12.6941 100.431 12.9607 100.431C13.2272 100.431 13.3958 100.258 13.4882 99.9336L15.1525 94.3823H15.7888L14.0647 100.063C13.8744 100.686 13.4665 101 12.9607 101C12.444 101 12.0415 100.691 11.8457 100.063Z" fill="white"/>
<path d="M21.5106 100.892C21.0483 100.892 20.896 100.659 20.896 100.28V94.9996C20.896 94.6208 21.0483 94.3882 21.5106 94.3882H25.1437V94.9725H21.5106V97.3478H24.9751V97.9321H21.5106V100.307H25.2307V100.892H21.5106Z" fill="white"/>
<path d="M30.5933 100.892V95.1346C30.5933 94.5882 30.9087 94.2852 31.3601 94.2852C31.7245 94.2852 31.9475 94.4421 32.1107 94.7721L34.7757 100.199C34.8736 100.394 34.928 100.469 35.064 100.469C35.1782 100.469 35.238 100.383 35.238 100.204V94.3771H35.8254V100.145C35.8254 100.691 35.4719 100.984 35.0857 100.984C34.7485 100.984 34.482 100.837 34.3134 100.497L31.6375 95.021C31.5614 94.8533 31.5015 94.7775 31.3873 94.7775C31.2405 94.7775 31.1752 94.8857 31.1752 95.0913V100.886H30.5933V100.892Z" fill="white"/>
<path d="M45.4688 94.9725H43.4183V100.897H42.8037V94.9725H40.7642V94.3882H45.4688V94.9725Z" fill="white"/>
<path d="M50.3145 98.1156V94.3823H50.929V98.1048C50.929 99.517 51.5436 100.377 52.8326 100.377C54.1216 100.377 54.7362 99.5224 54.7362 98.1048V94.3823H55.3508V98.1156C55.3508 99.8687 54.535 100.972 52.8326 100.972C51.1248 100.972 50.3145 99.8687 50.3145 98.1156Z" fill="white"/>
<path d="M61.1323 100.891V94.3823H63.161C64.4391 94.3823 65.4616 94.9775 65.4616 96.2598C65.4616 97.2229 64.8579 97.8776 63.8844 98.0399C64.499 98.2942 64.8253 98.9164 65.2386 99.7659L65.788 100.886H65.1244L64.6132 99.8525C64.1618 98.9381 63.8028 98.2726 62.7585 98.2726H61.7415V100.886H61.1323V100.891ZM61.7469 94.9721V97.7099H63.1393C64.1128 97.7099 64.8307 97.25 64.8307 96.3193C64.8307 95.3725 64.0693 94.9775 63.1556 94.9775H61.7469V94.9721Z" fill="white"/>
<path d="M71.7381 100.892C71.2758 100.892 71.1235 100.659 71.1235 100.28V94.9996C71.1235 94.6208 71.2758 94.3882 71.7381 94.3882H75.3713V94.9725H71.7381V97.3478H75.2026V97.9321H71.7381V100.307H75.4583V100.892H71.7381Z" fill="white"/>
<path d="M80.4399 99.636L80.9566 99.3709C81.234 100.015 81.8704 100.372 82.6971 100.372C83.5836 100.372 84.2526 99.912 84.2526 99.1166C84.2526 98.2509 83.4857 98.0832 82.6372 97.91C81.6637 97.6936 80.5596 97.4014 80.5596 96.1083C80.5596 95.0857 81.4951 94.3174 82.61 94.3174C83.5346 94.3174 84.3613 94.7665 84.7149 95.6213L84.2036 95.8919C83.9154 95.2588 83.3497 94.9071 82.5883 94.9071C81.8268 94.9071 81.1742 95.4049 81.1742 96.0867C81.1742 96.9415 81.9628 97.1201 82.8113 97.304C83.7848 97.5205 84.8671 97.8126 84.8671 99.1166C84.8671 100.226 83.9262 100.967 82.6916 100.967C81.68 100.972 80.7935 100.496 80.4399 99.636Z" fill="white"/>
<path d="M0 82.5768H5.11794C5.50409 84.1405 6.668 85.2009 9.81164 85.2009C12.0361 85.2009 13.0913 84.6707 13.0913 83.6048C13.0913 82.29 11.5738 82.1872 8.64774 81.473C3.14364 80.1583 0.886529 78.9192 0.886529 75.5484C0.886529 71.4309 4.27492 69.0557 9.38742 69.0557C14.7827 69.0557 17.4314 71.6798 18.1004 75.2995H12.9825C12.5963 74.0551 11.5358 73.3138 9.20793 73.3138C7.19557 73.3138 5.96095 73.8819 5.96095 74.9478C5.96095 75.873 6.84204 76.0462 9.6648 76.6846C15.2015 77.9615 18.3071 79.0274 18.3071 82.9285C18.3071 87.2949 14.4618 89.4212 9.6648 89.4212C4.48159 89.4266 0.707048 86.8728 0 82.5768Z" fill="white"/>
<path d="M40.6554 69.4831L40.6227 88.9992H35.5755V86.375C34.2376 88.22 32.2252 89.4266 29.5058 89.4266C24.4259 89.4266 20.6514 85.2388 20.6514 79.2438C20.6514 73.211 24.4966 69.061 29.4731 69.061C32.2252 69.061 34.2702 70.3379 35.6136 72.2208V69.4885H40.6554V69.4831ZM35.6081 79.2384C35.6081 76.0461 33.4544 73.8819 30.6316 73.8819C27.8089 73.8819 25.7258 76.0461 25.7258 79.2384C25.7258 82.4685 27.8415 84.5949 30.6316 84.5949C33.4598 84.6003 35.6081 82.4685 35.6081 79.2384Z" fill="white"/>
<path d="M44.6743 69.4829H49.7215V88.999H44.6743V69.4829Z" fill="white"/>
<path d="M71.8797 76.755V88.9992H66.8325V77.8533C66.8325 75.2995 65.8807 73.8765 63.1993 73.8765C60.344 73.8765 58.8265 75.543 58.8265 78.7407V88.9992H53.7793V69.4831H58.8265V72.1451C60.2352 70.1594 62.1769 69.0557 64.8582 69.0557C69.231 69.0557 71.8797 71.9666 71.8797 76.755Z" fill="white"/>
<path d="M94.9998 79.2384C94.9998 85.1306 90.5563 89.4212 84.8727 89.4212C79.2272 89.4212 74.7837 85.0927 74.7837 79.2384C74.7837 73.3463 79.2979 69.0557 84.8727 69.0557C90.4801 69.0557 94.9998 73.3463 94.9998 79.2384ZM79.8636 79.2384C79.8636 82.4686 82.05 84.595 84.8727 84.595C87.6955 84.595 89.8819 82.4632 89.8819 79.2384C89.8819 76.0462 87.6955 73.8819 84.8727 73.8819C82.05 73.8819 79.8636 76.0462 79.8636 79.2384Z" fill="white"/>
<path d="M74.7731 15.4743L47.4974 29.8719L20.2217 15.4743L47.4974 1.08203L74.7731 15.4743Z" stroke="white" stroke-width="4" stroke-miterlimit="10" stroke-linecap="round" stroke-linejoin="round"/>
<path d="M74.7731 30.7595L47.4974 45.1517L20.2217 30.7595L47.4974 16.3618L74.7731 30.7595Z" stroke="white" stroke-width="4" stroke-miterlimit="10" stroke-linecap="round" stroke-linejoin="round"/>
<path d="M74.7731 44.2643L47.4974 58.662L20.2217 44.2643L47.4974 29.8721L74.7731 44.2643Z" stroke="white" stroke-width="4" stroke-miterlimit="10" stroke-linecap="round" stroke-linejoin="round"/>
<path d="M21.5704 15.4741H19.1338V30.7537H21.5704V15.4741Z" fill="white"/>
<path d="M48.7159 1.08203H46.2793V16.8215H48.7159V1.08203Z" fill="white"/>
<path d="M48.7159 44.2642H46.2793V57.7691H48.7159V44.2642Z" fill="white"/>
<path d="M75.855 30.7593H73.4185V44.2642H75.855V30.7593Z" fill="white"/>
</g>
<defs>
<clipPath id="clip0">
<rect width="95" height="101" fill="white"/>
</clipPath>
</defs>
</svg>