<svg width="95" height="101" viewBox="0 0 95 101" fill="none" xmlns="http://www.w3.org/2000/svg">
<g clip-path="url(#clip0)">
<path d="M13.4881 99.9395C13.3957 100.259 13.2325 100.437 12.9443 100.437C12.656 100.437 12.5091 100.259 12.4004 99.9395L10.7252 94.3828H10.0889L11.813 100.064C11.858 100.324 11.994 100.56 12.1971 100.73C12.4001 100.901 12.657 100.994 12.9225 100.994C13.188 100.994 13.4449 100.901 13.6479 100.73C13.8509 100.56 13.987 100.324 14.032 100.064L15.7561 94.3828H15.1198L13.4881 99.9395Z" fill="#181818"/>
<path d="M21.5101 97.9322H24.9692V97.3478H21.5101V94.9671H25.1432V94.3828H21.5101C21.4257 94.3699 21.3395 94.377 21.2583 94.4034C21.1772 94.4299 21.1035 94.475 21.0431 94.535C20.9827 94.5951 20.9374 94.6684 20.9108 94.7491C20.8842 94.8299 20.8771 94.9157 20.8901 94.9996V100.28C20.8901 100.659 21.0478 100.892 21.5101 100.892H25.2303V100.307H21.5101V97.9322Z" fill="#181818"/>
<path d="M35.2378 100.21C35.2378 100.389 35.1834 100.475 35.0638 100.475C34.9441 100.475 34.8734 100.394 34.7755 100.199L32.1105 94.7886C32.04 94.6138 31.9087 94.47 31.7405 94.3835C31.5723 94.2971 31.3784 94.2737 31.1943 94.3177C31.0102 94.3617 30.8482 94.4701 30.7378 94.6231C30.6274 94.7761 30.576 94.9635 30.593 95.1511V100.908H31.1804V95.097C31.1804 94.8914 31.2457 94.7832 31.3926 94.7832C31.5394 94.7832 31.5666 94.8644 31.6427 95.0267L34.3132 100.502C34.3764 100.652 34.4844 100.779 34.6225 100.866C34.7606 100.953 34.9222 100.996 35.0855 100.989C35.1909 100.987 35.2947 100.963 35.3902 100.918C35.4857 100.874 35.571 100.81 35.6405 100.731C35.71 100.653 35.7624 100.56 35.7942 100.46C35.8259 100.36 35.8365 100.255 35.8252 100.151V94.3828H35.2378V100.21Z" fill="#181818"/>
<path d="M40.7695 94.9726H42.8091V100.892H43.4237V94.9726H45.4741V94.3882H40.7695V94.9726Z" fill="#181818"/>
<path d="M54.7362 98.1053C54.7362 99.5175 54.1216 100.378 52.8326 100.378C51.5436 100.378 50.929 99.5175 50.929 98.1053V94.3828H50.3145V98.1161C50.3145 99.8692 51.1194 100.973 52.8326 100.973C54.5459 100.973 55.3508 99.8908 55.3508 98.1161V94.3828H54.7362V98.1053Z" fill="#181818"/>
<path d="M63.8784 98.0458C64.3198 98.0047 64.7287 97.7976 65.0218 97.4668C65.3149 97.136 65.4701 96.7064 65.4557 96.2657C65.4557 94.978 64.4386 94.3828 63.1605 94.3828H61.1318V100.876H61.7355V98.2676H62.758C63.8023 98.2676 64.1613 98.9277 64.6127 99.8421L65.1239 100.876H65.7875L65.2436 99.7555C64.8248 98.9223 64.4985 98.3001 63.8784 98.0458ZM61.7464 97.7103V94.9726H63.1605C64.0742 94.9726 64.8357 95.3729 64.8357 96.3198C64.8357 97.2667 64.1123 97.7103 63.1388 97.7103H61.7464Z" fill="#181818"/>
<path d="M71.7386 97.9322H75.1977V97.3478H71.7386V94.9671H75.3717V94.3828H71.7386C71.6542 94.3699 71.568 94.377 71.4868 94.4034C71.4057 94.4299 71.332 94.475 71.2716 94.535C71.2112 94.5951 71.1659 94.6684 71.1393 94.7491C71.1128 94.8299 71.1056 94.9157 71.1186 94.9996V100.28C71.1186 100.659 71.2763 100.892 71.7386 100.892H75.4588V100.307H71.7386V97.9322Z" fill="#181818"/>
<path d="M82.8112 97.31C81.9682 97.1206 81.1796 96.9475 81.1796 96.0926C81.21 95.7497 81.376 95.4328 81.6412 95.2116C81.9063 94.9904 82.2489 94.883 82.5937 94.9131C82.9344 94.8901 83.2741 94.9724 83.5661 95.1486C83.8581 95.3249 84.0883 95.5865 84.2253 95.8978L84.7311 95.6219C84.5555 95.2171 84.2599 94.8754 83.8837 94.6424C83.5076 94.4093 83.0689 94.2961 82.6263 94.3179C82.3733 94.301 82.1195 94.334 81.8794 94.4149C81.6393 94.4959 81.4176 94.6232 81.2271 94.7896C81.0366 94.956 80.881 95.1582 80.7692 95.3846C80.6575 95.611 80.5918 95.8571 80.5759 96.1088C80.5759 97.4074 81.6636 97.6995 82.6535 97.9105C83.502 98.0891 84.2851 98.2514 84.2851 99.1171C84.2851 99.9828 83.6162 100.378 82.7296 100.378C82.3711 100.406 82.0123 100.325 81.7013 100.145C81.3903 99.9653 81.1419 99.6954 80.9892 99.3714L80.4453 99.6365C80.6447 100.059 80.967 100.412 81.3703 100.65C81.7737 100.889 82.2396 101.001 82.7079 100.973C83.937 100.973 84.8834 100.232 84.8834 99.1171C84.8725 97.8132 83.7848 97.521 82.8112 97.31Z" fill="#181818"/>
<path d="M9.66523 76.6847C6.84248 76.0462 5.96139 75.8677 5.96139 74.9425C5.96139 73.8603 7.19601 73.3193 9.22469 73.3193C11.5525 73.3193 12.6076 74.0605 12.9992 75.305H18.1117C17.4428 71.6853 14.7995 69.0611 9.40961 69.0611C4.29711 69.0611 0.908717 71.4364 0.908717 75.5538C0.908717 78.9247 3.16582 80.1691 8.66992 81.4785C11.596 82.1873 13.1134 82.2955 13.1134 83.6103C13.1134 84.6924 12.0583 85.2064 9.85015 85.2064C6.71195 85.2064 5.54804 84.1243 5.15644 82.5822H0.0439453C0.745554 86.8729 4.52553 89.4267 9.70874 89.4267C14.5058 89.4267 18.351 87.3003 18.351 82.9339C18.3075 79.0275 15.2074 77.9616 9.66523 76.6847Z" fill="#181818"/>
<path d="M35.6081 72.2101C34.9305 71.2149 34.0142 70.4033 32.9421 69.8488C31.87 69.2943 30.6759 69.0143 29.4677 69.0341C24.4966 69.0341 20.6514 73.184 20.6514 79.2169C20.6514 85.2497 24.4259 89.3997 29.5058 89.3997C30.692 89.4283 31.8669 89.1647 32.9259 88.6323C33.9849 88.0998 34.8951 87.3151 35.5755 86.3481V88.9776H40.6173L40.6554 69.4561H35.6081V72.2101ZM30.637 84.595C27.8524 84.595 25.7421 82.4686 25.7421 79.2385C25.7421 76.0084 27.8197 73.882 30.637 73.882C33.4544 73.882 35.6136 76.0462 35.6136 79.2385C35.6136 82.4308 33.4544 84.595 30.637 84.595Z" fill="#181818"/>
<path d="M49.722 69.4832H44.6748V88.9993H49.722V69.4832Z" fill="#181818"/>
<path d="M71.8743 88.9993V76.755C71.8743 71.9612 69.231 69.0557 64.8582 69.0557C63.6709 69.0136 62.4925 69.275 61.4356 69.8149C60.3787 70.3549 59.4785 71.1553 58.8211 72.1398V69.4777H53.7793V88.9993H58.8211V78.7191C58.8211 75.5268 60.3385 73.8495 63.1993 73.8495C65.8807 73.8495 66.8325 75.2671 66.8325 77.8209V88.9668L71.8743 88.9993Z" fill="#181818"/>
<path d="M84.8726 69.0341C82.1579 69.0341 79.5543 70.1069 77.6347 72.0165C75.7151 73.9262 74.6367 76.5162 74.6367 79.2169C74.6367 81.9175 75.7151 84.5075 77.6347 86.4172C79.5543 88.3268 82.1579 89.3997 84.8726 89.3997C90.5507 89.3997 94.9942 85.109 94.9942 79.2169C95.0257 77.8807 94.7863 76.5518 94.2903 75.3097C93.7942 74.0676 93.0517 72.9376 92.107 71.9872C91.1624 71.0369 90.0349 70.2855 88.792 69.7782C87.549 69.2708 86.216 69.0177 84.8726 69.0341ZM84.8726 84.5734C82.0498 84.5734 79.858 82.447 79.858 79.2169C79.858 75.9867 82.0335 73.8604 84.8726 73.8604C87.7117 73.8604 89.8817 76.0246 89.8817 79.2169C89.8817 82.4091 87.6953 84.595 84.8726 84.595V84.5734Z" fill="#181818"/>
<path d="M47.4972 59.7386C47.675 59.7373 47.8501 59.6947 48.0084 59.6142L75.2841 45.2273C75.4587 45.1349 75.6045 44.9969 75.7061 44.8282C75.8077 44.6594 75.8611 44.4664 75.8607 44.2697C75.8607 44.2426 75.8607 44.2155 75.8607 44.1885V30.8405C75.8607 30.8135 75.8607 30.7864 75.8607 30.7594C75.8611 30.5627 75.8077 30.3696 75.7061 30.2009C75.6045 30.0321 75.4587 29.8941 75.2841 29.8017L62.6171 23.1142L75.2841 16.432C75.4596 16.3402 75.6064 16.2025 75.7089 16.0337C75.8113 15.8649 75.8655 15.6715 75.8655 15.4744C75.8655 15.2772 75.8113 15.0838 75.7089 14.915C75.6064 14.7462 75.4596 14.6085 75.2841 14.5167L48.0084 0.124435C47.8511 0.0410683 47.6755 -0.00253296 47.4972 -0.00253296C47.3189 -0.00253296 47.1433 0.0410683 46.9859 0.124435L19.7102 14.5167C19.5357 14.6091 19.3898 14.7471 19.2882 14.9159C19.1867 15.0846 19.1332 15.2777 19.1337 15.4744V30.7594C19.1342 30.9551 19.1881 31.1471 19.2896 31.3148C19.3912 31.4825 19.5365 31.6196 19.7102 31.7116L30.6966 37.5118L19.7102 43.3066C19.5348 43.3984 19.388 43.5361 19.2855 43.7049C19.1831 43.8737 19.1289 44.0671 19.1289 44.2643C19.1289 44.4614 19.1831 44.6548 19.2855 44.8236C19.388 44.9924 19.5348 45.1301 19.7102 45.2219L46.9859 59.6142C47.1443 59.6947 47.3194 59.7373 47.4972 59.7386ZM47.4972 17.5899L57.9724 23.1142L47.4972 28.6438L37.022 23.1142L47.4972 17.5899ZM47.4972 31.1165L59.653 37.5334L47.4972 43.9288L35.3414 37.5118L47.4972 31.1165ZM48.7155 56.8115V45.7359L61.9753 38.7346L72.4505 44.2643L48.7155 56.8115ZM73.4132 42.3435L64.2977 37.5334L73.4132 32.718V42.3435ZM72.4505 30.781L61.9753 36.3052L49.8196 29.8882L60.2947 24.364L72.4505 30.781ZM60.2947 21.913L48.7155 15.799V2.94878L72.4505 15.4689L60.2947 21.913ZM46.2789 2.97583V15.8044L34.6996 21.9184L22.5438 15.4689L46.2789 2.97583ZM21.5649 17.4384L32.3773 23.1412L21.5649 28.8494V17.4384ZM22.5438 30.7864L34.6996 24.3694L45.1748 29.8937L33.019 36.3106L22.5438 30.7864ZM33.019 38.7346L46.2789 45.7359V56.7898L22.5438 44.2643L33.019 38.7346Z" fill="#181818"/>
</g>
<defs>
<clipPath id="clip0">
<rect width="95" height="101" fill="white"/>
</clipPath>
</defs>
</svg>
