<svg width="20" height="16" viewBox="0 0 20 16" fill="none" xmlns="http://www.w3.org/2000/svg">
<path d="M19.2311 1.79448C18.5449 2.09913 17.8074 2.3043 17.0333 2.39679C17.8237 1.92349 18.4307 1.17352 18.7159 0.279781C17.9768 0.718104 17.1577 1.03674 16.2857 1.2085C15.5886 0.464747 14.593 0 13.4925 0C11.0219 0 9.20645 2.30508 9.76446 4.69798C6.58506 4.53866 3.76549 3.01541 1.87775 0.700229C0.875203 2.4201 1.35782 4.67 3.06138 5.80933C2.43498 5.78913 1.84433 5.61737 1.32907 5.3306C1.2871 7.10332 2.55777 8.7618 4.39811 9.13095C3.85953 9.27706 3.26966 9.31126 2.66968 9.19623C3.15619 10.7164 4.56908 11.8223 6.24466 11.8534C4.63592 13.1147 2.60907 13.6782 0.579102 13.4388C2.27255 14.5245 4.28464 15.1579 6.44517 15.1579C13.55 15.1579 17.5641 9.15738 17.3216 3.77548C18.0693 3.23535 18.7182 2.56155 19.2311 1.79448Z" fill="white"/>
</svg>
